<svg xmlns="http://www.w3.org/2000/svg" viewBox="0 0 65.43 65.43"><defs><style>.cls-1,.cls-20,.cls-23{fill:#fff;}.cls-2,.cls-7{fill:#fdd5ba;}.cls-3{fill:#ffdb84;}.cls-4{fill:#9d9fa2;}.cls-22,.cls-25,.cls-26,.cls-34,.cls-36,.cls-40,.cls-42,.cls-43,.cls-48,.cls-49,.cls-5,.cls-53,.cls-6{fill:none;}.cls-26,.cls-5{stroke:#d7d6c6;}.cls-18,.cls-22,.cls-23,.cls-25,.cls-26,.cls-28,.cls-29,.cls-30,.cls-34,.cls-36,.cls-40,.cls-42,.cls-43,.cls-48,.cls-5,.cls-53,.cls-6{stroke-linecap:round;}.cls-18,.cls-23,.cls-26,.cls-30,.cls-36,.cls-40,.cls-42,.cls-43,.cls-46,.cls-49,.cls-5,.cls-53,.cls-6,.cls-7{stroke-miterlimit:10;}.cls-5{stroke-width:0.63px;}.cls-14,.cls-26,.cls-5{opacity:0.39;}.cls-6{stroke:#d1d3d4;}.cls-34,.cls-48,.cls-6{stroke-width:0.3px;}.cls-43,.cls-7{stroke:#e1af72;}.cls-7{stroke-width:0.5px;}.cls-8{fill:#fbbe97;}.cls-9{fill:#86735d;}.cls-10{fill:#fee9da;}.cls-11,.cls-44{fill:#eea980;}.cls-12{fill:#4a4b4c;}.cls-13{fill:#907c64;}.cls-14,.cls-35{fill:#c39d4c;}.cls-15{fill:#98897a;}.cls-16,.cls-18{fill:#d2bba5;}.cls-17{fill:#bca083;}.cls-18,.cls-22,.cls-23,.cls-34,.cls-48{stroke:#fff;}.cls-18,.cls-43{stroke-width:0.4px;}.cls-19{opacity:0.47;}.cls-20{font-size:3.04px;font-family:ArialRoundedMTBold, Arial Rounded MT Bold;}.cls-21{letter-spacing:-0.04em;}.cls-22,.cls-25,.cls-28,.cls-29,.cls-34,.cls-48{stroke-linejoin:round;}.cls-22,.cls-23{stroke-width:0.38px;}.cls-24{fill:#9b9087;}.cls-25{stroke:#867667;stroke-width:0.37px;opacity:0.57;}.cls-26{stroke-width:0.64px;}.cls-27,.cls-28,.cls-29,.cls-30{fill:#d69f5c;}.cls-28{stroke:#bf8a4d;}.cls-28,.cls-29,.cls-30{stroke-width:0.33px;}.cls-29,.cls-30{stroke:#e0c09b;}.cls-31{fill:#bf8a4d;}.cls-32{fill:#b3b5b8;}.cls-33{fill:#c7c8ca;}.cls-34{opacity:0.74;}.cls-36{stroke:#e39a7c;stroke-width:0.6px;}.cls-37{fill:#c8bc9e;}.cls-38{fill:#e5ddcd;}.cls-39{fill:#cfc3a8;}.cls-40{stroke:#cfc3a8;stroke-width:0.37px;}.cls-41{fill:#68503c;opacity:0.19;}.cls-42{stroke:#86735d;stroke-width:0.8px;}.cls-43{opacity:0.59;}.cls-44{opacity:0.77;}.cls-45{fill:#c7b3a4;}.cls-46{fill:#ddad72;stroke:#e5bf90;stroke-width:0.44px;}.cls-47{fill:#eca193;}.cls-48{opacity:0.53;}.cls-49{stroke:#c29053;stroke-width:0.26px;}.cls-50{fill:#a5be69;}.cls-51{fill:#c3d195;}.cls-52{fill:#f68f6d;}.cls-53{stroke:#dcd9c5;stroke-width:0.32px;opacity:0.41;}</style></defs><title>Asset 3</title><g id="Layer_2" data-name="Layer 2"><g id="圖層_1" data-name="圖層 1"><rect class="cls-1" width="65.43" height="65.43"/><ellipse class="cls-2" cx="13.3" cy="55.57" rx="3.29" ry="3.13"/><path class="cls-3" d="M20.47,40.88s-3.93,1.63-8.63,10.65l7.09,2.68Z"/><path class="cls-4" d="M52.53,43.64v2.25a.88.88,0,0,0,1.75,0V43.78A3.61,3.61,0,0,0,52.53,43.64Z"/><path class="cls-4" d="M55.21,37.71V36.1a1.8,1.8,0,0,0-3.61,0v1.6a1.79,1.79,0,0,0,.93,1.54v4.39a3.61,3.61,0,0,1,1.75.14V39.25A1.79,1.79,0,0,0,55.21,37.71Z"/><path class="cls-5" d="M52.17,20.85a2,2,0,0,1,0,3c-1.48,1.71,0,2.76,0,2.76"/><path class="cls-6" d="M28.84,44.14s1.19,1.48,5.58.43"/><path class="cls-3" d="M43.83,41.18C41,38.76,32,38.41,32,38.41s-8.4.53-11.51,2.47l0,.23c-1.18,2.39-2.33,11.08-3,22.19l14.59,0,14.11.38A206.17,206.17,0,0,0,43.83,41.18Z"/><path class="cls-7" d="M37.33,40.51c0,1-2.54,2.8-5.67,2.8S26,41.55,26,40.51s2.54-1.88,5.67-1.88S37.33,39.47,37.33,40.51Z"/><path class="cls-8" d="M34.46,40.1s-.53.67-3,.67-2.65-.67-2.65-.67V32.69h5.66Z"/><path class="cls-9" d="M31.51,8.18c-.68-.06-13.34-1.46-11.81,15.5L31.37,29.2l.13-14.81.13,14.81,11.68-5.52C44.85,6.71,32.18,8.12,31.51,8.18Z"/><path class="cls-2" d="M42.63,25a45.39,45.39,0,0,0-.86-8.33h0a10,10,0,0,0-5-7.18,9.54,9.54,0,0,1-4.87,1.25,9.44,9.44,0,0,1-5.25-1.47A10.21,10.21,0,0,0,21,16.82,35.31,35.31,0,0,0,20.41,25"/><path class="cls-2" d="M42.35,28S41.36,11,31.69,8.3V8.18l-.18.06-.18-.06V8.3C21.65,11,20.66,28,20.66,28a14.39,14.39,0,0,0,2.75,5.86A12.78,12.78,0,0,0,31.32,38h.37a12.78,12.78,0,0,0,7.91-4.09A14.39,14.39,0,0,0,42.35,28Z"/><ellipse class="cls-10" cx="38.74" cy="28.73" rx="2.37" ry="0.61"/><ellipse class="cls-10" cx="24.27" cy="28.73" rx="2.37" ry="0.61"/><path class="cls-11" d="M30.55,26.38s-.56,3.07,1.7,2.87A3,3,0,0,0,33,29s.05,1-1.38,1.24c0,0-1.43.13-1.69-1.08C30,29.21,29.77,27,30.55,26.38Z"/><path class="cls-9" d="M22.51,11.74s.07-2.67-1.3-1.11A18.27,18.27,0,0,0,19.58,26.8S19.95,15,22.51,11.74Z"/><path class="cls-9" d="M40.35,11.74s-.07-2.67,1.3-1.11c0,0,5.09,6.44,1.77,16.14C43.42,26.77,42.91,15,40.35,11.74Z"/><rect class="cls-12" x="25.81" y="22.79" width="1.26" height="2.04" rx="0.63" ry="0.63"/><rect class="cls-12" x="35.83" y="22.79" width="1.26" height="2.04" rx="0.63" ry="0.63"/><path class="cls-13" d="M22,13.44l-.62,4.74a6.21,6.21,0,0,0-1,4.29L20,16.36Z"/><path class="cls-13" d="M40.73,13.57l.78,4.55a6.45,6.45,0,0,1,1.07,4.37L43,16.3Z"/><path class="cls-14" d="M39,39.23s.61,10.51.58,23.08l1.8.91s0-17-.89-23.62Z"/><path class="cls-15" d="M39.33,39.09s.89,10.67,1,23.24l2.15.89S42.11,45.94,41,39.34Z"/><path class="cls-14" d="M24.47,39.51s-.6,10.24-.57,22.81l-1.78.91s0-16.73.88-23.34Z"/><path class="cls-15" d="M24.11,39.27s-.88,10.48-1,23L21,63.21s.38-17.08,1.5-23.68Z"/><path class="cls-15" d="M31.8,46.46V63.34H19.42a118.2,118.2,0,0,0,2.22-15.56A38.11,38.11,0,0,1,31.8,46.46Z"/><path class="cls-15" d="M31.67,46.46V63.34H44a118.2,118.2,0,0,1-2.22-15.56A38.11,38.11,0,0,0,31.67,46.46Z"/><path class="cls-16" d="M59.79,63.34A1.38,1.38,0,0,0,58.41,62H6a1.38,1.38,0,0,0-1.37,1.38,1.33,1.33,0,0,0,.22.7H59.57A1.33,1.33,0,0,0,59.79,63.34Z"/><path class="cls-17" d="M4.88,64A1.36,1.36,0,0,0,6,64.71H58.41A1.36,1.36,0,0,0,59.57,64Z"/><line class="cls-18" x1="2.68" y1="61.79" x2="61.77" y2="61.79"/><g class="cls-19"><text class="cls-20" transform="translate(25.61 60.14) scale(1.02 1)">Chi<tspan class="cls-21" x="4.92" y="0">ck</tspan><tspan x="8.24" y="0">en</tspan></text><path class="cls-22" d="M29.89,51.84s-1.29-1.27,0-2.31a1.19,1.19,0,0,1,1.73.65,1.08,1.08,0,0,1,1.31-.95,1.11,1.11,0,0,1,.73,1.61.92.92,0,0,1,1.46-.2s1.2.92-.76,2.46"/><path class="cls-22" d="M29.25,52.72a4.67,4.67,0,0,0-2.51,1.46l2.32.8"/><path class="cls-23" d="M34.42,56.72V53.84a2.67,2.67,0,0,0-5.33,0v2.88Z"/><ellipse class="cls-24" cx="31.68" cy="53.52" rx="0.58" ry="0.59"/></g><path class="cls-25" d="M42.16,60.89c-.64-3.94-1.56-11.83-1.56-11.83a28,28,0,0,0-18.06,0s-.64,8.63-1.2,11.83"/><path class="cls-3" d="M43.83,41.18a32.06,32.06,0,0,1,8.28,8.05s.51,4.83-3,6.35a10.7,10.7,0,0,1-4.71-4.71"/><path class="cls-26" d="M54.49,20.85a2.06,2.06,0,0,1,0,3c-1.49,1.72,0,2.78,0,2.78"/><path class="cls-26" d="M56.76,20.85a2.06,2.06,0,0,1,0,3c-1.49,1.72,0,2.78,0,2.78"/><polygon class="cls-27" points="63.03 37.83 62.22 39.07 61.29 40.09 59.87 40.25 58.41 40.24 56.99 39.94 55.53 39.84 54.08 39.87 52.64 39.96 51.27 39.96 49.91 40.19 48.57 39.87 47.28 39.5 46.09 38.88 45.25 37.86 44.64 36.64 44.48 35.28 44.82 33.94 45.16 32.55 45.67 31.18 46.77 30.21 47.96 29.42 49.2 28.56 50.67 28.23 52.16 28.39 53.65 28.21 55.07 28.71 56.54 28.96 57.85 29.7 59.22 30.28 60.34 31.25 61.38 32.28 62.44 33.37 63 34.79 63.19 36.31 63.03 37.83"/><polyline class="cls-28" points="46.33 35.02 46.62 36.33 47.46 36.62 47.74 37.37 49.53 37.93"/><polyline class="cls-28" points="46.81 37.4 47.17 38.45 48.42 38.65"/><polyline class="cls-28" points="61.69 36.19 61.41 37.36 60.28 37.48 59.72 38.65"/><polyline class="cls-29" points="57.39 30.72 58.59 31.25 58.64 32.09 59.64 32.41 59.92 33.06"/><polyline class="cls-29" points="55.94 30.96 57.19 31.73 57.39 32.65"/><line class="cls-30" x1="60.65" y1="34.1" x2="60.97" y2="34.95"/><line class="cls-30" x1="47.77" y1="31.04" x2="46.97" y2="31.97"/><path class="cls-31" d="M53.59,34.15a1.81,1.81,0,0,0-1.8,1.8v1.6a1.79,1.79,0,0,0,.93,1.54v.82c.52,0,.8-.12,1.28-.12s.35-.08.35-.56l.11-.14a1.79,1.79,0,0,0,.93-1.54V36A1.81,1.81,0,0,0,53.59,34.15Z"/><path class="cls-32" d="M53.16,43.26v2.25a.88.88,0,0,0,1.75,0V43.41A3.61,3.61,0,0,0,53.16,43.26Z"/><path class="cls-33" d="M55.84,37.33v-1.6a1.8,1.8,0,0,0-3.61,0v1.6a1.79,1.79,0,0,0,.93,1.54v4.39a3.61,3.61,0,0,1,1.75.14V38.88A1.79,1.79,0,0,0,55.84,37.33Z"/><line class="cls-34" x1="54.98" y1="35.51" x2="54.98" y2="37.5"/><circle class="cls-35" cx="50.55" cy="52.16" r="3.71"/><circle class="cls-35" cx="15.13" cy="52.32" r="3.71"/><path class="cls-8" d="M23.28,13.9a6.45,6.45,0,0,0,4.85,5.56c.09.14-2.12-3.14-2.22-6.09"/><path class="cls-36" d="M29.53,32.95a8.89,8.89,0,0,0,4.74-.61"/><path class="cls-9" d="M41,19.5a45,45,0,0,1,.59,6.13,34,34,0,0,1,2-2.94l-1-4"/><path class="cls-2" d="M51.31,46.87a18.19,18.19,0,0,0-2.88,3.66s-1.48,3.08,1.64,4.2c0,0,4.18,1.51,5.57-4.4"/><ellipse class="cls-37" cx="53.62" cy="48.79" rx="4.02" ry="4.16" transform="translate(-11.23 81.2) rotate(-68.85)"/><ellipse class="cls-38" cx="54.07" cy="48.01" rx="4.02" ry="4.16" transform="translate(-10.22 81.12) rotate(-68.85)"/><rect class="cls-39" x="50.03" y="44.8" width="2.63" height="5.11" rx="1.31" ry="1.31" transform="translate(0.27 -0.3) rotate(0.33)"/><rect class="cls-38" x="49.68" y="43.97" width="2.63" height="5.11" rx="1.31" ry="1.31" transform="translate(0.27 -0.29) rotate(0.33)"/><path class="cls-40" d="M53.54,46a8.43,8.43,0,0,1,2,.1"/><path class="cls-40" d="M53.67,47.83a8.43,8.43,0,0,1,2,.1"/><path class="cls-40" d="M53.6,49.67a9.88,9.88,0,0,0,2,.1"/><path class="cls-14" d="M45.22,52.22l-1.49-1.51s.24,4.39,1.86,5.9C45.59,56.6,45.35,53.42,45.22,52.22Z"/><path class="cls-41" d="M23.19,51.2h2.09s-.37,7.93-7.5,8.06c0,0,.12-8.31,1-9.79Z"/><path class="cls-42" d="M34,21.43a7.32,7.32,0,0,1,4.85-.35"/><path class="cls-42" d="M28.94,21.43a7.32,7.32,0,0,0-4.85-.35"/><path class="cls-9" d="M21.21,10.63s3.24-4.68,10.3-2.45l.38,2.52-8.32,1.18Z"/><path class="cls-43" d="M48.92,47s-3.08.5-3.17,4.33"/><path class="cls-8" d="M27,16.29A22.18,22.18,0,0,0,41.26,20L38.8,15.83,26.59,13Z"/><path class="cls-9" d="M24.47,12.55s4.43,7.65,19.61,7.66c0,0-.32-7-2.43-9.58,0,0-6.54-8.29-16-1.63C24.59,9.74,25.65,11.4,24.47,12.55Z"/><path class="cls-8" d="M25.34,16.62A5.93,5.93,0,0,1,21,20.5l3.54-6.29Z"/><path class="cls-9" d="M22,19.5a45,45,0,0,0-.59,6.13,34,34,0,0,0-2-2.94l1-4"/><path class="cls-2" d="M16.72,27.06c.54,1.81,2.08,3,3.44,2.57s2-2.19,1.48-4-2.08-3-3.44-2.57S16.18,25.25,16.72,27.06Z"/><path class="cls-44" d="M18.15,26.7c.24.8.83,1.33,1.3,1.19s.66-.9.42-1.7S19,24.86,18.57,25,17.91,25.9,18.15,26.7Z"/><path class="cls-2" d="M46.29,27.06c-.54,1.81-2.08,3-3.44,2.57s-2-2.19-1.48-4,2.08-3,3.44-2.57S46.83,25.25,46.29,27.06Z"/><path class="cls-44" d="M44.86,26.7c-.24.8-.83,1.33-1.3,1.19s-.66-.9-.42-1.7S44,24.86,44.44,25,45.1,25.9,44.86,26.7Z"/><path class="cls-9" d="M25.75,14.53s-2.63,5.6-5.79,7.1c0,0-1.5-7.83,1.82-10.28a4.91,4.91,0,0,1,6.16,0"/><path class="cls-9" d="M23.65,13.9s.49,4.07,5.92,5.19c.11.14-2.64-2.77-2.76-5.71"/><path class="cls-43" d="M15.59,47.36a4.54,4.54,0,0,1,4.25,1.33"/><circle class="cls-38" cx="13.36" cy="50.48" r="3.71"/><ellipse class="cls-45" cx="8.29" cy="50.57" rx="3.7" ry="3.17"/><line class="cls-46" x1="3.85" y1="41.75" x2="9.25" y2="52.24"/><rect class="cls-47" x="2.23" y="42.38" width="4.91" height="1.98" rx="0.99" ry="0.99" transform="translate(-21.79 8.7) rotate(-31.19)"/><rect class="cls-47" x="3.57" y="44.98" width="4.91" height="1.98" rx="0.99" ry="0.99" transform="translate(-18.48 6.61) rotate(-24.44)"/><line class="cls-48" x1="6.28" y1="42.74" x2="5.12" y2="43.47"/><line class="cls-48" x1="7.63" y1="45.62" x2="6.75" y2="46.01"/><line class="cls-46" x1="13.17" y1="42.29" x2="10.77" y2="53.84"/><rect class="cls-27" x="10.32" y="42.9" width="4.42" height="4.42" rx="0.5" ry="0.5" transform="translate(9.95 -1.64) rotate(12.36)"/><rect class="cls-49" x="11.35" y="43.94" width="2.36" height="2.36" rx="0.27" ry="0.27" transform="translate(9.95 -1.64) rotate(12.36)"/><ellipse class="cls-50" cx="17.66" cy="50.46" rx="4.11" ry="3.81"/><ellipse class="cls-51" cx="11.77" cy="53.16" rx="4.11" ry="3.81"/><path class="cls-52" d="M2.78,48.28c0,5.11,3.77,9.29,8.37,9.29h4.36c4.6,0,8.37-4.18,8.37-9.29Zm2.83,2.25a.51.51,0,0,1,.55-.62H8.48a.86.86,0,0,1,.82.62.51.51,0,0,1-.55.62H6.43A.86.86,0,0,1,5.61,50.53Zm.84,2.37A.51.51,0,0,1,7,52.28H9a.86.86,0,0,1,.82.62.51.51,0,0,1-.55.62h-2A.86.86,0,0,1,6.45,52.9Zm3.33,3H8.57a.86.86,0,0,1-.82-.62.51.51,0,0,1,.55-.62H9.51a.86.86,0,0,1,.82.62A.51.51,0,0,1,9.78,55.9Zm4.61,0H12.27a.62.62,0,0,1,0-1.25h2.12a.62.62,0,0,1,0,1.25Zm.1-2.37H12.17a.62.62,0,1,1,0-1.25h2.31a.62.62,0,0,1,0,1.25Zm.26-2.37H11.91a.62.62,0,0,1,0-1.25h2.83a.62.62,0,0,1,0,1.25Zm3.35,4.75H16.88a.51.51,0,0,1-.55-.62.86.86,0,0,1,.82-.62h1.21a.51.51,0,0,1,.55.62A.86.86,0,0,1,18.09,55.9Zm1.3-2.37h-2a.51.51,0,0,1-.55-.62.86.86,0,0,1,.82-.62h2a.51.51,0,0,1,.55.62A.86.86,0,0,1,19.39,53.52Zm.84-2.37H17.91a.51.51,0,0,1-.55-.62.86.86,0,0,1,.82-.62H20.5a.51.51,0,0,1,.55.62A.86.86,0,0,1,20.23,51.15Z"/><path class="cls-48" d="M22.81,49.35a8.15,8.15,0,0,1-1.13,3.49"/><path class="cls-53" d="M30.08,14.13a15.63,15.63,0,0,0,7.84,3.14"/><path class="cls-53" d="M32.69,13.41A9.6,9.6,0,0,0,36.78,15"/><path class="cls-53" d="M23.86,10.8a11.65,11.65,0,0,0-2.81,5"/><path class="cls-43" d="M25.61,43.05a10.18,10.18,0,0,0,11.75,0"/></g></g></svg>