<svg xmlns="http://www.w3.org/2000/svg" viewBox="0 0 47.69 47.69"><defs><style>.cls-1{fill:#fff;}.cls-2{fill:#988e7e;}.cls-12,.cls-3,.cls-8{fill:#b1844b;}.cls-4,.cls-5{fill:#d69f5c;}.cls-5{stroke:#bf8a4d;stroke-linejoin:round;stroke-width:0.64px;}.cls-10,.cls-14,.cls-5,.cls-7{stroke-linecap:round;}.cls-6{fill:#e7dccb;}.cls-10,.cls-7{fill:none;stroke:#fff;stroke-width:0.41px;}.cls-10,.cls-14,.cls-7{stroke-miterlimit:10;}.cls-7{opacity:0.85;}.cls-8{opacity:0.7;}.cls-9{fill:#ffe7a5;}.cls-11{fill:#ffe49b;}.cls-12{opacity:0.59;}.cls-13{fill:#ccbfab;}.cls-14{fill:#c6b8a2;stroke:#aa997e;stroke-width:0.76px;opacity:0.67;}.cls-15{fill:#fffbce;}</style></defs><title>Asset 5</title><g id="Layer_2" data-name="Layer 2"><g id="圖層_1" data-name="圖層 1"><rect class="cls-1" width="47.69" height="47.69"/><polygon class="cls-2" points="3.26 33.84 6.48 34.73 7.81 32.29 38.09 33.29 39.2 35.62 43.3 33.84 41.31 39.61 6.04 39.5 3.26 33.84"/><polygon class="cls-3" points="21.76 14.52 27.3 15.55 30.29 18.23 31.28 20.04 34.2 23.22 36.12 24.52 36.6 25.86 27.23 30.37 21.04 20.4 21.76 14.52"/><polygon class="cls-4" points="26.31 24.08 24.18 21.09 22.43 17.91 21.65 14.48 18.06 14.37 14.49 15.44 11.18 17.16 8.96 20.23 7.76 23.82 7.67 27.6 7.12 31.38 7.77 35.13 7.67 38.19 7.58 41.11 11.14 41.19 14.77 41.46 18.4 41.05 22.02 41.44 25.65 41.03 29.27 41.55 32.91 41.54 36.56 41.34 37.24 39.04 37.79 35.61 38.35 32.16 37.81 28.71 36.53 25.67 33.14 26.34 29.59 25.58 26.31 24.08"/><polyline class="cls-5" points="18.28 19.42 15.46 20.35 14.56 22.54 12.43 23.21 11.9 25.87"/><polyline class="cls-5" points="15.2 18.68 12.78 19.25 12.25 21.31"/><path class="cls-6" d="M23,15.8l4.05.78s1.78,1.35,2,1.63a21.44,21.44,0,0,1,1.63,2.42l2.7,2.91s1.78.71,1.71,1.07c0,0,.36.5-2.06.78a20.79,20.79,0,0,1-3.13-.78L27,23.41s-3.84-5-3.84-5.54C23.17,17.86,22.53,15.94,23,15.8Z"/><line class="cls-7" x1="24.75" y1="18.02" x2="27.37" y2="18.31"/><line class="cls-7" x1="25.57" y1="20.08" x2="29.28" y2="20.22"/><line class="cls-7" x1="27.28" y1="22.15" x2="30.24" y2="22.16"/><path class="cls-8" d="M27,23.67a4,4,0,0,1,.41,2.46,6.29,6.29,0,0,0-.59,2.79s0,1.06.91,1.13c0,0,.91.27,1.12-.84a4.83,4.83,0,0,0,0-2.38s-.29-1.08.89-.19a2.67,2.67,0,0,1,1.1,1.8,10,10,0,0,1-.13,4s-.45,1.81.72,1.91c0,0,1.59.32,1.19-1.69a7.27,7.27,0,0,1-.46-4.46,3.23,3.23,0,0,0,.12-2.69S30.66,23.86,27,23.67Z"/><path class="cls-9" d="M27.69,23.62a3.65,3.65,0,0,1,.42,2.31s-.82,1.8-.58,2.63c0,0,0,1,.91,1.07a.88.88,0,0,0,1.12-.78,4.29,4.29,0,0,0,0-2.24s-.29-1,.88-.18a2.55,2.55,0,0,1,1.11,1.7,8.91,8.91,0,0,1-.11,3.78s-.44,1.71.73,1.8c0,0,1.59.31,1.18-1.59a6.51,6.51,0,0,1-.48-4.2A2.88,2.88,0,0,0,33,25.4S31.34,23.81,27.69,23.62Z"/><path class="cls-10" d="M28,23.56s3.12-.4,4.91,1.6"/><path class="cls-10" d="M28.86,26.84s.62,1.69,0,2.14"/><path class="cls-10" d="M32.51,32s.33.63.09,1"/><path class="cls-11" d="M35.83,20.22s4-5.83,9.94-2.93a2.3,2.3,0,0,1,1.14,2.93s-1.14,2.44-4.56-.33C42.35,19.9,40.23,18.67,35.83,20.22Z"/><path class="cls-11" d="M33,16.25s4.22-.06,4.26-3.75a1.5,1.5,0,0,0-1.28-1.44s-1.63-.22-1,2.24C34.89,13.29,35,14.67,33,16.25Z"/><circle class="cls-11" cx="40.3" cy="24.18" r="1.52"/><path class="cls-10" d="M43.52,17.76s2.77.22,2.33,1.89"/><polygon class="cls-12" points="7.37 36.95 7.71 35.13 11.01 32.47 13.55 34.81 16.57 32.57 19.4 35.4 22.82 32.77 25.64 35.2 29.06 32.96 32.08 35.89 34.82 33.45 37.74 35.98 37.45 37.45 7.37 36.95"/><path class="cls-13" d="M3.28,34.2l.6,10.29H15.76A29.49,29.49,0,0,1,3.28,34.2Z"/><path class="cls-6" d="M43.3,33.84,38.41,37.5,35,34.84,31.8,37.28l-3.24-2.66-2.74,2.33L22.7,34.06l-3.49,3L16.6,33.84l-3.12,2.77-3-2.77L7.37,36.95,3.26,33.84l0,.36A29.49,29.49,0,0,0,15.76,44.49H42.52Z"/><line class="cls-10" x1="40.95" y1="37.67" x2="40.77" y2="42.63"/><line class="cls-14" x1="7.33" y1="42.06" x2="38.9" y2="42.06"/><rect class="cls-15" x="19.33" y="31.22" width="0.82" height="1.47" rx="0.41" ry="0.41" transform="matrix(-1, -0.07, 0.07, -1, 37.19, 65.21)"/><rect class="cls-15" x="18.14" y="24.73" width="0.82" height="1.47" rx="0.41" ry="0.41" transform="translate(26.05 56.08) rotate(-157.69)"/><rect class="cls-15" x="13.23" y="28.08" width="0.82" height="1.47" rx="0.41" ry="0.41" transform="translate(44.68 36.09) rotate(128.51)"/><rect class="cls-15" x="19.95" y="21.25" width="0.82" height="1.47" rx="0.41" ry="0.41" transform="translate(49.97 17.41) rotate(124.01)"/><rect class="cls-15" x="22.38" y="28.1" width="0.82" height="1.47" rx="0.41" ry="0.41" transform="translate(59.54 28.96) rotate(128.51)"/></g></g></svg>