<svg xmlns="http://www.w3.org/2000/svg" viewBox="0 0 47.69 47.69"><defs><style>.cls-1,.cls-7{fill:#fff;}.cls-2{fill:#c6a468;}.cls-3,.cls-9{fill:#f4d484;}.cls-4{fill:#c7b692;}.cls-5{fill:#dccfb6;}.cls-10,.cls-18,.cls-6{fill:#9b9087;}.cls-7{font-size:4.86px;font-family:ArialRoundedMTBold, Arial Rounded MT Bold;}.cls-8{letter-spacing:-0.04em;}.cls-9{stroke:#f4d484;stroke-linejoin:round;}.cls-10,.cls-14,.cls-15,.cls-17,.cls-18,.cls-9{stroke-linecap:round;}.cls-10,.cls-9{stroke-width:0.5px;}.cls-10,.cls-18{stroke:#9b9087;}.cls-10,.cls-14,.cls-15,.cls-17,.cls-18{stroke-miterlimit:10;}.cls-11{fill:#ffdb84;}.cls-12{fill:#d7b55f;}.cls-13{fill:#f0eade;}.cls-14,.cls-15,.cls-17{fill:none;stroke:#fff;stroke-width:0.38px;}.cls-14{opacity:0.53;}.cls-15{opacity:0.68;}.cls-16{fill:#80776f;}.cls-17{opacity:0.85;}.cls-18{stroke-width:0.75px;opacity:0.4;}</style></defs><title>Asset 6</title><g id="Layer_2" data-name="Layer 2"><g id="圖層_1" data-name="圖層 1"><rect class="cls-1" width="47.69" height="47.69"/><polygon class="cls-2" points="41.35 40.83 6.84 40.83 6.84 34.35 9.03 33 39.17 33 41.35 34.35 41.35 40.83"/><path class="cls-3" d="M11.22,13a10.42,10.42,0,0,0-4.1,2.25l3.59,1.37,7.66-3.13,1.34-1.82-.31-1.48-1.08-.4-.94.11-.46-1.14L15.61,8l-1.08.51-.43.65-1.28-.91-1.37.37L10.8,9.66l.31,1.57.65.31Z"/><path class="cls-4" d="M11.43,24H9.65v6q.88-.34,1.79-.63Z"/><path class="cls-5" d="M9.65,29.93V37.8h1.79V29.29Q10.53,29.59,9.65,29.93Z"/><path class="cls-4" d="M38.55,24H36.77v6.15c.6-.21,1.19-.41,1.79-.6Z"/><path class="cls-5" d="M36.77,30.12V37.8h1.79V29.52C38,29.71,37.36,29.91,36.77,30.12Z"/><path class="cls-6" d="M20,11.22a1.77,1.77,0,0,0-.64-1.34,1.8,1.8,0,0,0-1.46-.4,1.4,1.4,0,0,0-.37.14,1.77,1.77,0,0,0-.22-.92,2,2,0,0,0-1.21-.88,1.79,1.79,0,0,0-1.44.26,1.84,1.84,0,0,0-.56.68,1.77,1.77,0,0,0-.82-.64,2.28,2.28,0,0,0-1.77.18,2.24,2.24,0,0,0-.93,1.64,3,3,0,0,0,.78,2,4.11,4.11,0,0,0-.65.93h0A6.93,6.93,0,0,0,6.9,15a.27.27,0,0,0,.12.43l3.2,1.1v2.57h8.21V14.7a4.08,4.08,0,0,0-.11-.91A3.56,3.56,0,0,0,20,11.22ZM7.6,15.07a6.53,6.53,0,0,1,2.85-1.63,4,4,0,0,0-.22,1.25V16Zm10.56-1.85a4.06,4.06,0,0,0-6.39-1.69A2.36,2.36,0,0,1,11.12,10a1.69,1.69,0,0,1,.68-1.22,1.8,1.8,0,0,1,1.29-.12,1.48,1.48,0,0,1,.82.91.28.28,0,0,0,.29.17.27.27,0,0,0,.24-.23,1.6,1.6,0,0,1,.55-1,1.27,1.27,0,0,1,1-.17,1.42,1.42,0,0,1,.84.62,1.63,1.63,0,0,1,0,1.34.27.27,0,0,0,.15.34.27.27,0,0,0,.35-.11A1.16,1.16,0,0,1,18,10a1.28,1.28,0,0,1,1,.3,1.2,1.2,0,0,1,.42.91A3,3,0,0,1,18.15,13.22Z"/><path class="cls-6" d="M36.74,17.06H18.44V14.57a4.11,4.11,0,0,0-8.22,0v2.66a5.18,5.18,0,0,0,1.25,10.2H36.74a5.19,5.19,0,1,0,0-10.37Z"/><text class="cls-7" transform="translate(19.79 24.18) scale(1.02 1)">Chi<tspan class="cls-8" x="7.86" y="0">ck</tspan><tspan x="13.16" y="0">en</tspan></text><path class="cls-9" d="M18.44,20.45a1.2,1.2,0,0,0-1.2-1.2h-5a3,3,0,0,0-.06,6H15a1.2,1.2,0,0,0,1.2-1.2,1.16,1.16,0,0,0-.19-.61h.1a1.2,1.2,0,0,0,1.2-1.2,1.16,1.16,0,0,0-.18-.59h.16A1.2,1.2,0,0,0,18.44,20.45Z"/><line class="cls-10" x1="13.4" y1="21.53" x2="15.93" y2="21.53"/><line class="cls-10" x1="13.4" y1="23.39" x2="15.11" y2="23.39"/><ellipse class="cls-1" cx="14.23" cy="14.24" rx="1.3" ry="1.34"/><ellipse class="cls-6" cx="14.26" cy="14.24" rx="0.71" ry="0.74"/><rect class="cls-11" x="6.84" y="34.35" width="34.51" height="9.35"/><rect class="cls-12" x="12.49" y="35.98" width="2.71" height="6.27"/><rect class="cls-12" x="17.72" y="35.98" width="2.71" height="6.27"/><rect class="cls-12" x="22.94" y="35.98" width="2.71" height="6.27"/><rect class="cls-12" x="28.17" y="35.98" width="2.71" height="6.27"/><rect class="cls-12" x="33.4" y="35.98" width="2.71" height="6.27"/><rect class="cls-13" x="11.93" y="35.71" width="2.71" height="6.27"/><rect class="cls-13" x="17.16" y="35.71" width="2.71" height="6.27"/><rect class="cls-13" x="22.39" y="35.71" width="2.71" height="6.27"/><rect class="cls-13" x="27.62" y="35.71" width="2.71" height="6.27"/><rect class="cls-13" x="32.85" y="35.71" width="2.71" height="6.27"/><path class="cls-14" d="M16.63,13s.86.89.63,3.19"/><line class="cls-14" x1="37.05" y1="18.18" x2="40.01" y2="21.45"/><line class="cls-14" x1="36.43" y1="19.52" x2="37.53" y2="20.62"/><line class="cls-15" x1="38.29" y1="36.04" x2="38.29" y2="39.82"/><path class="cls-16" d="M10.22,17.23s1.06-.09,1.73-.09a3.68,3.68,0,0,1-1.72-2.91S10.16,16.88,10.22,17.23Z"/><line class="cls-17" x1="15.23" y1="19.85" x2="17.13" y2="19.85"/><line class="cls-18" x1="13.29" y1="37" x2="13.29" y2="40.04"/><line class="cls-18" x1="18.52" y1="37" x2="18.52" y2="40.45"/><line class="cls-18" x1="23.75" y1="37" x2="23.75" y2="39.54"/><line class="cls-18" x1="28.98" y1="37" x2="28.98" y2="40.45"/><line class="cls-18" x1="34.2" y1="37" x2="34.2" y2="39.13"/><rect class="cls-6" x="6.84" y="43.69" width="34.6" height="0.95"/></g></g></svg>