<svg xmlns="http://www.w3.org/2000/svg" viewBox="0 0 47.69 47.69"><defs><style>.cls-1{fill:#fff;}.cls-2{fill:#949494;}.cls-3,.cls-4,.cls-5,.cls-6{fill:#d69f5c;}.cls-4{stroke:#bf8a4d;}.cls-4,.cls-5,.cls-6,.cls-9{stroke-linecap:round;}.cls-4,.cls-5{stroke-linejoin:round;}.cls-4,.cls-5,.cls-6{stroke-width:0.55px;}.cls-5,.cls-6{stroke:#e0c09b;}.cls-6,.cls-9{stroke-miterlimit:10;}.cls-7{fill:#bababa;}.cls-8{fill:#c9c9c9;}.cls-9{fill:none;stroke:#fff;stroke-width:0.39px;opacity:0.77;}.cls-10{fill:#bf8a4d;}.cls-11{fill:#fffbce;}.cls-12{fill:#b78449;}</style></defs><title>Asset 4</title><g id="Layer_2" data-name="Layer 2"><g id="圖層_1" data-name="圖層 1"><rect class="cls-1" width="47.69" height="47.69"/><path class="cls-2" d="M14.5,26.65a12.35,12.35,0,0,1,1,1.46c.34-.22.45-.93.79-1.17a7.24,7.24,0,0,0-.88-1.14Z"/><polygon class="cls-3" points="43.63 32.41 43.07 34.81 42.19 36.95 40.05 38 37.76 38.81 35.36 39.15 33.03 39.83 30.77 40.7 28.56 41.65 26.41 42.43 24.41 43.57 22.13 43.83 19.9 43.99 17.69 43.69 15.79 42.56 14.13 41.01 13.11 38.96 12.89 36.66 12.62 34.29 12.64 31.85 13.82 29.72 15.23 27.79 16.69 25.74 18.8 24.4 21.23 23.79 23.46 22.67 25.96 22.64 28.42 22.19 30.89 22.61 33.37 22.74 35.68 23.62 37.89 24.66 40.18 25.75 41.86 27.66 43.02 29.94 43.63 32.41"/><polyline class="cls-4" points="16.82 38.23 18.43 39.8 19.86 39.42 20.95 40.21 23.95 39.36"/><polyline class="cls-4" points="16.94 40.58 18.09 42.02 20.16 41.63"/><polyline class="cls-4" points="40.61 30.61 40.83 32.59 39.13 33.42 38.91 35.57"/><polyline class="cls-5" points="30.75 24.48 32.94 24.61 33.48 25.91 35.24 25.84 36.05 26.69"/><polyline class="cls-5" points="32.24 27.32 34.63 27.81 35.47 29.15"/><line class="cls-6" x1="37.78" y1="27.92" x2="38.76" y2="29.06"/><path class="cls-2" d="M13,23.41l0,0a3.82,3.82,0,0,0-.78-.2,5.5,5.5,0,0,0-.82,2.64,6,6,0,0,1,.77-.12A5,5,0,0,1,13,23.41Z"/><path class="cls-7" d="M3.86,27.07A7.27,7.27,0,0,0,15.57,35.6a1.5,1.5,0,0,0-.77-1,6,6,0,1,1-.3-7.94l.9-.85A7.28,7.28,0,0,0,3.86,27.07Z"/><path class="cls-2" d="M31.09,13.72s-1.56,4.15-5.74.86l-1.48,3.16s6,2.18,8.52-2.48"/><rect class="cls-2" x="17.6" y="15.46" width="3.98" height="4.67" transform="translate(-6.74 15.14) rotate(-36.48)"/><path class="cls-7" d="M30.23,14.46a1.38,1.38,0,0,1-.31.28,3.23,3.23,0,0,1-3.24.29l-1.56,3.4a6.48,6.48,0,0,0,7-2Z"/><path class="cls-7" d="M25.08,13.74a3.5,3.5,0,0,1,.46-4.92,3.5,3.5,0,0,1,4.84,1,3.72,3.72,0,0,1,.42,3.94l1.81,1.93a6.51,6.51,0,1,0-8.4,2.37l1.63-3.54A4.07,4.07,0,0,1,25.08,13.74Z"/><polygon class="cls-7" points="26.03 16.84 25.92 16.69 25.76 17.04 26.03 16.84"/><polygon class="cls-7" points="22.4 11.93 18.58 14.75 22.21 19.66 24.12 18.25 25.26 15.79 22.4 11.93"/><path class="cls-7" d="M21.37,20.29,18.93,22.1a2.27,2.27,0,0,1-3.15-.59l-.84-1.14a2.27,2.27,0,0,1,.35-3.18l2.44-1.81"/><circle class="cls-2" cx="17.33" cy="19.42" r="0.57" transform="translate(-8.15 14.11) rotate(-36.48)"/><path class="cls-8" d="M15.5,20.84c-.92-.55-2.31.68-3.2,2.17l-.09.15a3.82,3.82,0,0,1,.78.2c.86-1.42,1.86-2,2.12-1.86s.21,1.33-.65,2.79a6.15,6.15,0,0,1-1.05,1.34,4.23,4.23,0,0,0,1.18-.17,7.92,7.92,0,0,0,.53-.78C16,23.19,16.42,21.39,15.5,20.84Z"/><path class="cls-8" d="M13.4,25.63c-.51.47-.94.66-1.09.57s-.14-.24-.14-.52a6,6,0,0,0-.77.12,1.19,1.19,0,0,0,.52,1.06c.76.45,1.82-.29,2.67-1.4A4.23,4.23,0,0,1,13.4,25.63Z"/><circle class="cls-1" cx="16.26" cy="32.4" r="1.74"/><path class="cls-2" d="M16.14,30.66A6.06,6.06,0,0,1,16,32.14a5,5,0,0,1,1.19.44,7.3,7.3,0,0,0,.22-1.52A1.78,1.78,0,0,0,16.14,30.66Z"/><path class="cls-9" d="M24.95,7a4.37,4.37,0,0,0-2.35,2.5"/><path class="cls-10" d="M16.6,34.1a7,7,0,0,1-3.51,4.66L12.92,37Z"/><path class="cls-7" d="M14.42,35a6,6,0,1,1-7.3-9.47L6.5,24.48a7.28,7.28,0,1,0,8.8,11.41,7.21,7.21,0,0,0,1.85-3.31A5,5,0,0,0,16,32.14,6,6,0,0,1,14.42,35Z"/><rect class="cls-11" x="22.55" y="26.73" width="0.69" height="1.24" rx="0.35" ry="0.35"/><rect class="cls-11" x="29.12" y="32.54" width="0.69" height="1.24" rx="0.35" ry="0.35"/><rect class="cls-11" x="23.93" y="32.12" width="0.69" height="1.24" rx="0.35" ry="0.35" transform="translate(11.51 -5.97) rotate(18.3)"/><rect class="cls-11" x="27.87" y="29.01" width="0.69" height="1.24" rx="0.35" ry="0.35" transform="translate(-12.19 36.1) rotate(-55.5)"/><rect class="cls-11" x="33.5" y="33.93" width="0.69" height="1.24" rx="0.35" ry="0.35" transform="translate(15.86 -10.35) rotate(22.58)"/><rect class="cls-11" x="22.62" y="35.17" width="0.69" height="1.24" rx="0.35" ry="0.35" transform="translate(-19.51 37.78) rotate(-60)"/><rect class="cls-11" x="20.16" y="29.54" width="0.69" height="1.24" rx="0.35" ry="0.35" transform="translate(-15.96 29.98) rotate(-55.5)"/><path class="cls-12" d="M16,31.21a1.72,1.72,0,0,1,1.68,2.16A1.73,1.73,0,1,0,14.58,32,1.73,1.73,0,0,1,16,31.21Z"/></g></g></svg>