<svg xmlns="http://www.w3.org/2000/svg" xmlns:xlink="http://www.w3.org/1999/xlink" width="206" height="43" viewBox="0 0 206 43">
  <defs>
    <polygon id="color-logo-a" points="0 42.085 0 .124 41.964 .124 41.964 42.085"/>
    <polygon id="color-logo-c" points="0 42.38 205.51 42.38 205.51 .415 0 .415"/>
  </defs>
  <g fill="none" fill-rule="evenodd">
    <g transform="translate(0 .294)">
      <mask id="color-logo-b" fill="#fff">
        <use xlink:href="#color-logo-a"/>
      </mask>
      <path fill="#FEC338" d="M20.9816914,2.63336239 C10.7957091,2.63336239 2.50915495,10.9199165 2.50915495,21.1058989 C2.50915495,31.2884711 10.7957091,39.5750252 20.9816914,39.5750252 C31.1676738,39.5750252 39.4542279,31.2884711 39.4542279,21.1058989 C39.4542279,10.9199165 31.1676738,2.63336239 20.9816914,2.63336239 M20.9816914,42.0848622 C9.4112066,42.0848622 -0.000682020915,32.6763837 -0.000682020915,21.1058989 C-0.000682020915,9.53541405 9.4112066,0.123525423 20.9816914,0.123525423 C32.5521762,0.123525423 41.9640649,9.53541405 41.9640649,21.1058989 C41.9640649,32.6763837 32.5521762,42.0848622 20.9816914,42.0848622" mask="url(#color-logo-b)"/>
    </g>
    <path fill="#FEC338" d="M27.2143396,26.6548476 C24.6601712,26.6548476 22.2287667,25.1441712 19.9780976,22.1569196 C18.1809725,19.7664363 16.4418192,18.5422088 14.5935425,18.6547422 C11.7324648,18.7672757 9.62161006,22.037566 9.59773932,22.071667 C9.22603792,22.6445646 8.45194419,22.8321203 7.8688163,22.4604189 C7.28227832,22.0887176 7.10836298,21.3180339 7.47665428,20.7314959 C7.58918773,20.5507604 10.2968108,16.3222307 14.477599,16.1483154 C17.1613513,16.0323718 19.6541377,17.5498684 21.9832391,20.6428332 C23.7837744,23.0333165 25.6218207,24.12455 27.3712044,24.1450106 C30.2322821,24.0290671 32.3431368,20.7587768 32.3635975,20.7280858 C32.7352989,20.148368 33.5059825,19.9642224 34.0959306,20.3393339 C34.6790585,20.7110353 34.8563839,21.4817189 34.4880926,22.0682569 C34.3755592,22.2489925 31.6679361,26.474112 27.4871479,26.6514375 C27.3950751,26.6548476 27.3064124,26.6548476 27.2143396,26.6548476"/>
    <polygon fill="#5A5C5F" points="70.104 34.134 63.771 34.134 63.771 11.706 54.465 11.706 54.465 6.56 79.41 6.56 79.41 11.706 70.104 11.706"/>
    <path fill="#5A5C5F" d="M89.1357004,20.3475182 C89.1357004,27.8395179 93.589297,29.3229134 96.2559988,29.3229134 C98.6192012,29.3229134 103.376297,28.1430172 103.376297,20.3475182 C103.376297,12.6509121 98.7215044,11.3687128 96.2559988,11.3687128 C93.8245942,11.3687128 89.1357004,12.6509121 89.1357004,20.3475182 M96.2559988,34.9052546 C89.152751,34.9052546 82.4007439,30.1106476 82.4007439,20.3475182 C82.4007439,10.5843888 89.152751,5.78978173 96.2559988,5.78978173 C103.287634,5.78978173 110.111254,10.5127766 110.111254,20.3475182 C110.111254,30.1788496 103.287634,34.9052546 96.2559988,34.9052546"/>
    <polygon fill="#5A5C5F" points="134.733 34.134 120.806 15.379 121.017 34.134 114.824 34.134 114.824 6.56 120.806 6.56 134.733 25.316 134.521 6.56 140.714 6.56 140.714 34.134"/>
    <polygon fill="#5A5C5F" points="169.613 29.199 169.613 34.134 147.007 34.134 147.007 6.559 169.159 6.559 169.159 11.497 153.306 11.497 153.306 17.687 167.304 17.687 167.304 22.413 153.306 22.413 153.306 29.199"/>
    <path fill="#5A5C5F" d="M183.70779 9.15794202C183.274706 8.09739949 182.309647 6.42303815 181.44007 5.21245102L179.82368 5.89447194C180.662566 7.16985105 181.596935 8.87831344 182.030018 9.93544586L183.70779 9.15794202zM196.470788 8.47182898L193.336902 8.47182898C192.992481 7.54428053 192.402533 6.26890142 191.812585 5.33794287L189.981359 5.86309898C190.414442 6.64060282 190.881627 7.63635336 191.222637 8.47182898L187.116871 8.47182898 187.116871 8.62187358 187.116871 8.47182898 187.062309 8.47182898 187.062309 10.3064652 196.470788 10.3064652 196.470788 8.47182898z"/>
    <mask id="color-logo-d" fill="#fff">
      <use xlink:href="#color-logo-c"/>
    </mask>
    <path fill="#5A5C5F" d="M180.414993 31.3856857L183.801226 31.3856857 183.801226 24.6234483 180.414993 24.6234483 180.414993 31.3856857zM178.645148 33.2510129L180.414993 33.2510129 185.571071 33.2510129 185.571071 22.7581211 178.645148 22.7581211 178.645148 33.2510129zM204.669702 12.1983913C204.26731 10.8343494 203.179487 8.62801177 202.217837 6.95024032L200.413892 7.66636228C201.409642 9.34072362 202.401983 11.5777522 202.807785 13.006586L204.669702 12.1983913z" mask="url(#color-logo-d)"/>
    <polygon fill="#5A5C5F" points="177.653 12.293 186.287 12.293 186.287 10.4 177.653 10.4" mask="url(#color-logo-d)"/>
    <path fill="#5A5C5F" d="M189.670016,22.788812 L194.0179,22.788812 L194.0179,19.9311444 L189.670016,19.9311444 L189.670016,22.788812 Z M189.670016,27.3890431 L194.0179,27.3890431 L194.0179,24.4699936 L189.670016,24.4699936 L189.670016,27.3890431 Z M195.9753,29.0395337 C195.924148,29.0940954 196.023041,28.9883821 195.9753,29.0395337 L195.9753,18.256783 L187.773998,18.256783 L187.773998,29.0634044 L189.670016,29.0634044 L194.0179,29.0634044 L194.0179,29.0736347 L195.941199,29.0736347 L195.9753,29.0395337 Z M195.941199,29.9022902 C195.136414,30.6763839 194.328219,31.3925059 193.458643,31.982454 C193.891726,32.2927735 194.515775,32.8520306 194.856785,33.223732 C196.469765,32.0438358 197.994082,30.5536201 199.392225,28.8451577 C200.2277,31.6687243 201.346214,33.3499059 202.901222,33.3771867 C203.893563,33.3771867 204.950695,32.2620825 205.509952,27.9448901 C205.134841,27.7573344 204.326646,27.2014873 203.924254,26.734303 C203.740108,29.278241 203.426378,30.7411759 202.931913,30.7718668 C202.154409,30.7411759 201.503079,29.2475501 200.974513,26.734303 C202.49542,24.4665835 203.80149,21.8885444 204.763139,19.0956688 L202.931913,18.1919911 C202.311274,20.244874 201.472388,22.137482 200.507329,23.9073263 C200.197009,21.8271625 199.948072,19.2832245 199.763926,16.5176297 L205.230324,16.5176297 L205.230324,14.5295387 L199.637752,14.5295387 C199.484297,11.6104892 199.392225,8.47319302 199.358123,5.1824421 L197.308651,5.1824421 C197.370033,8.47319302 197.465515,11.6104892 197.61897,14.5295387 L194.420292,14.5295387 C194.795404,13.5030973 195.197796,12.1697464 195.569497,10.9250582 L193.676889,10.5874579 C193.489334,11.702562 193.086941,13.3462325 192.742521,14.5295387 L190.819222,14.5295387 C190.693048,13.4417154 190.352037,11.8287359 189.949645,10.6181488 L188.271874,10.8636763 C188.582193,12.0128816 188.895923,13.4417154 189.018686,14.5295387 L178.675839,14.5295387 L178.675839,16.5176297 L197.714453,16.5176297 C197.963391,20.3676378 198.335092,23.7504615 198.832967,26.4853654 C198.004312,27.6686717 197.066533,28.7360344 196.121934,29.7181445 L195.941199,29.9022902 Z" mask="url(#color-logo-d)"/>
    <polygon fill="#5A5C5F" points="178.676 20.429 185.571 20.429 185.571 18.564 178.676 18.564" mask="url(#color-logo-d)"/>
  </g>
</svg>
