<svg xmlns="http://www.w3.org/2000/svg" width="178" height="44" viewBox="0 0 178 44">
  <g fill="#FFF" fill-rule="evenodd">
    <path d="M21.7051431,3.00013169 C11.3735463,3.00013169 2.96860606,11.4052749 2.96860606,21.7364658 C2.96860606,32.0678596 11.3735463,40.4730028 21.7051431,40.4730028 C32.0363339,40.4730028 40.4414772,32.0678596 40.4414772,21.7364658 C40.4414772,11.4052749 32.0363339,3.00013169 21.7051431,3.00013169 M21.7051431,43.4416495 C9.73697429,43.4416495 -4.05996534e-05,33.7048376 -4.05996534e-05,21.7364658 C-4.05996534e-05,9.76829692 9.73697429,0.0314850312 21.7051431,0.0314850312 C33.673312,0.0314850312 43.4101239,9.76829692 43.4101239,21.7364658 C43.4101239,33.7048376 33.673312,43.4416495 21.7051431,43.4416495" transform="translate(0 .172)"/>
    <path d="M28.092849,27.4943492 C25.4114449,27.4943492 22.8650346,25.9168497 20.5189837,22.8008263 C18.715953,20.4054467 16.9186064,19.2250118 15.1644984,19.2934222 C12.3391685,19.4034473 10.2253475,22.6692834 10.2044387,22.7021691 C9.76454145,23.3921602 8.84841027,23.5977975 8.15740417,23.1601332 C7.46639807,22.7224689 7.25832484,21.8099917 7.69416212,21.1175646 C7.81230712,20.9295882 10.641088,16.511534 15.0293015,16.3278205 C17.8227607,16.2117055 20.4615351,17.7883931 22.8910184,21.0152535 C24.698109,23.415911 26.5051996,24.595128 28.2562626,24.5222516 C31.0584507,24.4049186 33.1824216,21.1504504 33.2035334,21.1175646 C33.6399797,20.4237166 34.5565168,20.2150343 35.2501619,20.6516836 C35.94401,21.0883329 36.1524892,22.0046671 35.7158399,22.6985151 C35.5976949,22.8866945 32.7685081,27.3045458 28.3807005,27.4882593 C28.2844794,27.4923192 28.1884612,27.4943492 28.092849,27.4943492"/>
    <polygon points="64.581 33.626 59.198 33.626 59.198 14.562 51.287 14.562 51.287 10.19 72.492 10.19 72.492 14.562 64.581 14.562"/>
    <path d="M80.758009,21.9080805 C80.758009,28.2761361 84.5443326,29.5379734 86.8097933,29.5379734 C88.8176492,29.5379734 92.8619836,28.5341469 92.8619836,21.9080805 C92.8619836,15.3680853 88.9037204,14.2781876 86.8097933,14.2781876 C84.7453009,14.2781876 80.758009,15.3680853 80.758009,21.9080805 M86.8097933,34.2804189 C80.7720158,34.2804189 75.0326458,30.2060407 75.0326458,21.9080805 C75.0326458,13.6101203 80.7720158,9.5357421 86.8097933,9.5357421 C92.7878893,9.5357421 98.5873468,13.5510478 98.5873468,21.9080805 C98.5873468,30.2651132 92.7878893,34.2804189 86.8097933,34.2804189"/>
    <polygon points="119.514 33.626 107.677 17.685 107.855 33.626 102.591 33.626 102.591 10.19 107.677 10.19 119.514 26.132 119.336 10.19 124.599 10.19 124.599 33.626"/>
    <polygon points="149.161 29.433 149.161 33.626 129.948 33.626 129.948 10.19 148.775 10.19 148.775 14.383 135.302 14.383 135.302 19.648 147.198 19.648 147.198 23.663 135.302 23.663 135.302 29.433"/>
    <polygon points="155.247 11.863 160.574 11.863 160.574 10.302 155.247 10.302"/>
    <path d="M166.884388,18.4256249 L165.10389,18.4256249 L164.36112,14.3317589 L167.824676,14.3317589 L166.884388,18.4256249 Z M176.271231,28.4492734 C175.90421,29.5882966 175.504913,30.6416546 175.461674,30.7366578 C175.410113,30.8499309 175.370934,30.9110333 175.370934,30.9110333 L175.333582,30.9688879 L175.265781,30.9835037 C175.257255,30.9855337 175.180115,31.0009616 175.107239,31.0009616 C174.839484,31.0009616 173.967201,29.0475093 173.851898,28.7020062 L173.812922,28.5775683 L173.883566,28.4718062 C175.275728,26.3472263 176.393233,24.395601 177.206241,22.6695067 L175.49862,21.7746903 C174.960674,23.1520336 174.40588,24.3125747 173.758925,25.4146523 L173.40855,26.0157301 L173.271932,25.333047 C172.906129,23.5227084 172.895776,20.3882122 172.895776,20.3571534 L172.895776,20.0920377 L177.417765,20.0920377 L177.417765,18.4256249 L172.895776,18.4256249 L172.895776,18.1605092 C172.895776,14.6210314 172.927038,11.968047 172.991185,10.0598633 L171.335734,10.0598633 L171.335734,18.4256249 L168.370539,18.4256249 L169.439527,14.3317589 L170.210515,14.3317589 L170.210515,12.8750433 L167.039276,12.8750433 L167.039276,10.0598633 L165.269131,10.0598633 L165.269131,12.8750433 L162.074344,12.8750433 L162.074344,14.3317589 L162.803311,14.3317589 L162.855076,14.5311032 L163.66849,18.4256249 L161.505137,18.4256249 L161.505137,20.0920377 L171.329035,20.0920377 L171.335734,20.3490335 C171.43906,23.6619652 171.675959,26.143822 172.060235,27.9358907 L172.086219,28.0532237 L172.013343,28.1492419 C171.453879,28.9214473 170.700756,29.7109076 169.776911,30.4932629 L169.588934,30.6546465 L169.629128,30.6546465 L169.040839,31.1264145 C168.495992,31.5612368 167.451768,32.122933 166.959701,32.3785078 L167.904861,33.7994957 C168.44037,33.4623156 169.932204,32.5143137 170.483954,32.0713714 C170.835141,31.8594413 171.455909,31.307083 172.346666,30.4173416 L172.604067,30.1597368 L172.771338,30.484128 C173.294262,31.5309901 173.958878,32.6499165 174.560362,33.4976373 L176.064376,33.4954043 C176.494123,32.353742 177.219436,30.2600179 177.631117,28.9293643 L176.271231,28.4492734 Z"/>
    <path d="M164.215448 25.2881031L167.569386 25.2881031 167.569386 23.1893041 164.215448 23.1893041 164.215448 25.2881031zM164.215448 29.3675563L167.569386 29.3675563 167.569386 26.5363395 164.215448 26.5363395 164.215448 29.3675563zM169.341764 21.7327915L162.551471 21.7327915 162.551471 31.5550656 164.215245 31.5550656 164.215245 30.8252869 169.341764 30.8252869 169.341764 21.7327915zM177.170087 15.510651C176.898679 14.8945513 176.220258 13.4201748 175.47627 11.7689869L174.06462 12.4760299 175.671351 16.1409606 177.170087 15.510651zM156.390474 30.343166L158.801687 30.343166 158.801687 26.3660239 156.390474 26.3660239 156.390474 30.343166zM160.467897 32.9549417L160.467897 24.9095114 154.724061 24.9095114 154.724061 33.4780682 156.390474 33.4780682 156.390474 32.1133109 158.801687 32.1133109 158.801687 32.9549417 160.467897 32.9549417z"/>
    <polygon points="155.141 22.537 160.468 22.537 160.468 21.081 155.141 21.081"/>
    <polygon points="155.141 19.155 160.468 19.155 160.468 17.698 155.141 17.698"/>
    <polygon points="153.991 15.574 160.943 15.574 160.943 14.012 153.991 14.012"/>
  </g>
</svg>
